<svg height="48pt" viewBox="0 0 48 48" width="48pt" xmlns="http://www.w3.org/2000/svg" xmlns:xlink="http://www.w3.org/1999/xlink"><linearGradient id="a" gradientUnits="userSpaceOnUse" x1="16.333344" x2="48.418512" y1="1.75608" y2="48.611136"><stop offset="0" stop-color="#9c33c4"/><stop offset=".51304347826" stop-color="#ff1950"/><stop offset=".98695652174" stop-color="#ff8724"/></linearGradient><path d="m33.886 41.178c.999-.571 2.279-.225 2.856.771.577.996.234 2.274-.766 2.85-3.887 2.238-8.32 3.34-12.794 3.187-4.057-.138-8.016-1.307-11.505-3.389-.988-.592-1.309-1.876-.717-2.864.593-.988 1.876-1.309 2.865-.717 2.875 1.727 6.141 2.684 9.499 2.799 3.703.126 7.356-.783 10.562-2.637zm7.862-26.022c-.518-1.032-.101-2.288.931-2.803 1.032-.515 2.285-.096 2.798.936 1.788 3.569 2.645 7.535 2.509 11.529-.104 3.045-.78 6.039-2.003 8.817-.462 1.056-1.695 1.538-2.751 1.075-1.056-.462-1.538-1.695-1.075-2.751 1.018-2.294 1.572-4.77 1.657-7.283.113-3.296-.6-6.567-2.066-9.52zm-26.337-9.021c-1.037.495-2.285.055-2.786-.982-.5-1.037-.065-2.286.972-2.786 3.492-1.677 7.341-2.485 11.221-2.353 3.733.127 7.396 1.119 10.675 2.912 1.013.553 1.386 1.824.833 2.837-.553 1.012-1.824 1.385-2.837.832-2.706-1.481-5.727-2.304-8.813-2.41-3.202-.109-6.378.556-9.265 1.95zm-10.221 24.156c.367 1.09-.223 2.273-1.316 2.639-1.093.366-2.278-.227-2.644-1.322-.899-2.714-1.313-5.568-1.216-8.426.129-3.775 1.142-7.478 2.978-10.788.553-1.007 1.821-1.371 2.831-.812 1.01.559 1.376 1.83.817 2.837-1.513 2.736-2.348 5.787-2.455 8.905-.08 2.368.257 4.718 1.005 6.967zm36.774-21.455c-.04 1.152-1.006 2.054-2.157 2.015s-2.054-1.006-2.015-2.157 1.006-2.054 2.157-2.014c1.151.039 2.054 1.005 2.015 2.156zm-32.602 28.927c-.039 1.151-1.005 2.054-2.156 2.015-1.152-.04-2.054-1.006-2.015-2.157s1.006-2.054 2.157-2.015 2.054 1.006 2.014 2.157zm33.409 1.139c.039-1.151-.864-2.117-2.015-2.157-1.151-.039-2.117.864-2.157 2.015-.039 1.151.864 2.118 2.015 2.157s2.118-.864 2.157-2.015zm-31.906-31.126c.039-1.151-.863-2.118-2.014-2.157-1.152-.039-2.118.864-2.157 2.015-.04 1.151.863 2.117 2.014 2.157 1.152.039 2.118-.864 2.157-2.015zm19.135 16.224-5 3-5 3v-6-6l5 3zm-16.5 0c0-2.78 1.11-5.46 3.08-7.42 1.96-1.97 4.64-3.08 7.42-3.08s5.46 1.11 7.42 3.08c1.97 1.96 3.08 4.64 3.08 7.42s-1.11 5.46-3.08 7.42c-1.96 1.97-4.64 3.08-7.42 3.08s-5.46-1.11-7.42-3.08c-1.97-1.96-3.08-4.64-3.08-7.42zm-3 0c0-7.451 6.049-13.5 13.5-13.5s13.5 6.049 13.5 13.5-6.049 13.5-13.5 13.5-13.5-6.049-13.5-13.5z" fill="url(#a)" fill-rule="evenodd"/></svg>